<?xml version="1.0" standalone="no"?>
<!DOCTYPE svg PUBLIC "-//W3C//DTD SVG 20010904//EN"
 "http://www.w3.org/TR/2001/REC-SVG-20010904/DTD/svg10.dtd">
<svg version="1.0" xmlns="http://www.w3.org/2000/svg"
 width="1966.000000pt" height="611.000000pt" viewBox="0 0 1966.000000 611.000000"
 preserveAspectRatio="xMidYMid meet">

<g transform="translate(0.000000,611.000000) scale(0.100000,-0.100000)"
fill="#000000" stroke="none">
<path d="M2322 4683 c-18 -71 -66 -261 -107 -423 -182 -713 -226 -892 -220
-910 13 -42 112 -180 179 -248 280 -290 641 -340 1226 -172 207 60 452 145
460 161 5 8 13 48 19 89 6 41 49 318 97 615 48 297 87 563 88 590 l1 50 -50
-3 c-62 -3 -263 -40 -682 -126 -366 -76 -584 -33 -767 149 -93 92 -175 229
-192 320 -3 19 -9 35 -13 35 -4 0 -22 -57 -39 -127z m73 -65 c54 -106 161
-223 257 -283 26 -17 47 -34 48 -39 0 -11 -83 -340 -103 -405 l-13 -43 -46 53
c-161 193 -278 344 -278 362 0 11 18 90 41 176 22 86 45 173 50 194 5 20 11
37 13 37 2 0 16 -24 31 -52z m1231 -325 c-3 -16 -13 -68 -21 -118 -8 -49 -22
-128 -31 -173 -9 -46 -14 -85 -12 -87 3 -4 45 5 257 53 74 17 137 29 141 27 5
-3 -66 -485 -73 -491 -1 -1 -81 -16 -177 -33 -96 -18 -196 -37 -222 -43 l-46
-9 -30 -127 c-17 -70 -40 -175 -53 -234 l-22 -107 -86 -20 c-103 -24 -241 -47
-333 -56 -62 -5 -68 -4 -68 14 0 10 18 103 40 206 22 103 40 191 40 196 0 5
-35 6 -79 2 -95 -7 -221 10 -315 43 -38 13 -70 23 -71 21 -1 -1 -18 -76 -39
-167 -47 -206 -46 -200 -56 -200 -16 0 -155 116 -194 161 -21 24 -62 82 -93
127 l-55 84 41 166 c23 92 47 185 52 206 l11 39 21 -24 c12 -13 38 -44 57 -69
19 -25 43 -54 53 -65 10 -11 60 -71 110 -133 l92 -113 18 63 c10 35 36 124 58
199 22 75 42 153 46 173 5 34 8 37 32 31 155 -40 397 -54 425 -25 8 8 33 103
56 210 24 107 46 198 49 202 3 4 87 24 186 44 99 20 196 40 215 44 71 15 82
13 76 -17z"/>
<path d="M3472 3875 c-95 -35 -228 -64 -330 -71 l-91 -7 -12 -56 c-6 -31 -28
-126 -49 -211 -50 -203 -53 -220 -43 -220 11 0 389 85 449 101 41 11 42 12 58
77 8 37 34 143 56 235 22 92 40 170 40 172 0 8 -11 5 -78 -20z"/>
<path d="M4130 4406 c-4 -11 -22 -113 -40 -226 -18 -113 -43 -275 -56 -360
-14 -85 -31 -198 -39 -250 -9 -52 -20 -122 -25 -155 -5 -33 -21 -134 -35 -225
-14 -91 -27 -173 -29 -182 -4 -17 8 -18 140 -18 l144 0 0 24 c0 23 19 145 105
681 20 121 42 261 50 310 8 50 26 159 40 243 14 85 25 160 25 166 0 10 -34 13
-136 13 -129 0 -136 -1 -144 -21z"/>
<path d="M4485 4398 c-7 -45 -103 -650 -121 -768 -8 -52 -21 -135 -29 -185
-13 -81 -60 -385 -69 -443 l-3 -22 191 2 190 3 12 75 c7 41 24 149 38 240 45
283 50 310 55 310 4 0 29 -37 56 -81 47 -75 91 -144 190 -299 23 -36 67 -107
99 -157 l59 -93 223 0 c123 0 224 2 224 5 0 3 -109 168 -241 366 l-242 361 70
71 c39 40 184 187 322 327 139 140 266 270 283 288 l32 32 -246 0 -247 0 -138
-152 c-76 -84 -142 -158 -148 -164 -5 -6 -66 -72 -134 -147 -68 -76 -126 -135
-128 -133 -2 2 17 128 42 280 25 152 45 286 45 296 0 19 -8 20 -190 20 l-189
0 -6 -32z"/>
<path d="M5920 4423 c0 -5 -7 -50 -15 -99 -26 -161 -95 -594 -161 -1014 -13
-85 -29 -184 -34 -220 -6 -36 -12 -75 -14 -87 l-3 -23 191 0 192 0 33 213 c19
116 39 240 45 275 l11 63 110 -213 c60 -117 123 -241 139 -276 l30 -62 425 2
426 3 65 126 c36 69 69 131 73 137 6 8 52 12 148 12 l140 0 -3 158 -3 157 -65
2 c-36 1 -66 2 -67 2 -3 1 75 188 87 209 9 16 92 209 111 261 5 13 12 22 14
19 2 -2 40 -204 84 -449 71 -393 98 -538 116 -616 5 -23 7 -23 195 -23 184 0
190 1 190 20 0 19 -113 565 -160 770 -10 47 -23 110 -29 140 -9 47 -90 429
-106 498 l-5 22 -240 0 -239 0 -358 -715 c-197 -393 -360 -715 -363 -715 -6 0
-21 24 -209 329 -73 117 -129 217 -124 221 4 4 30 13 57 19 117 29 236 124
288 232 57 118 59 288 5 398 -28 59 -109 140 -169 169 -93 45 -163 54 -495 59
-192 3 -313 2 -313 -4z m508 -285 c92 -22 132 -74 132 -170 0 -76 -32 -136
-90 -168 -39 -21 -61 -25 -158 -28 l-113 -4 6 33 c14 83 55 335 55 342 0 11
116 8 168 -5z"/>
<path d="M8685 4383 c-3 -27 -22 -145 -41 -263 -19 -118 -46 -285 -59 -370
-13 -85 -43 -267 -65 -405 -22 -137 -44 -276 -48 -307 l-9 -58 193 0 c193 0
194 0 198 23 3 12 12 67 21 122 20 128 30 196 51 323 l17 102 214 0 c117 0
213 3 213 7 0 10 30 200 39 250 5 23 6 45 3 48 -3 3 -99 5 -213 5 l-208 0 4
28 c10 52 35 205 35 208 0 2 103 4 229 4 l229 0 11 78 c7 42 17 106 22 141 5
35 12 74 15 87 l6 24 -425 0 -425 0 -7 -47z"/>
<path d="M9660 4403 c0 -16 -9 -75 -19 -133 -11 -58 -22 -122 -24 -142 l-6
-38 160 0 c145 0 159 -2 159 -17 0 -10 -9 -72 -19 -138 -105 -656 -117 -733
-131 -825 -5 -36 -12 -80 -16 -97 l-6 -33 195 0 195 0 7 48 c8 61 85 542 132
834 l37 228 155 2 155 3 23 140 c12 77 24 152 27 168 l6 27 -515 0 -515 0 0
-27z"/>
<path d="M10890 4422 c0 -5 -7 -49 -15 -98 -8 -49 -26 -161 -40 -249 -14 -88
-43 -275 -66 -415 -22 -140 -45 -280 -49 -310 -5 -30 -16 -102 -25 -160 -9
-58 -20 -129 -24 -157 l-8 -53 418 0 417 0 11 65 c6 36 16 95 22 133 6 37 13
79 15 95 l6 27 -227 0 -227 0 6 33 c4 17 12 68 17 112 6 44 15 84 19 88 4 5
98 8 208 7 110 0 203 4 206 8 8 13 46 250 46 285 l0 27 -205 0 -206 0 6 33 c3
17 11 70 18 117 11 80 13 85 37 87 14 0 116 1 226 2 l201 1 7 43 c4 23 14 87
22 142 8 55 18 110 21 123 l5 22 -421 0 c-232 0 -421 -4 -421 -8z"/>
<path d="M11990 4425 c0 -4 -7 -49 -15 -99 -8 -50 -21 -134 -29 -186 -9 -52
-27 -167 -41 -255 -63 -401 -86 -541 -110 -695 -14 -91 -28 -175 -30 -187 l-5
-23 193 0 194 0 17 108 c9 59 28 183 43 276 l26 169 21 -39 c12 -22 75 -145
141 -274 l120 -235 222 -3 222 -2 -40 62 c-143 224 -309 500 -304 507 2 5 22
12 42 16 118 21 259 130 308 237 82 180 41 411 -91 515 -118 92 -179 104 -566
110 -175 3 -318 2 -318 -2z m557 -306 c66 -34 86 -74 80 -165 -3 -58 -9 -78
-31 -107 -44 -57 -85 -71 -214 -75 l-113 -4 6 34 c16 92 55 334 55 342 0 5 38
6 85 4 61 -4 98 -12 132 -29z"/>
<path d="M13941 4368 c-11 -63 -106 -660 -161 -1018 -5 -30 -16 -102 -25 -160
-9 -58 -20 -129 -24 -157 l-8 -53 433 0 432 0 6 48 c4 26 16 100 27 165 10 65
19 123 19 128 0 5 -100 9 -241 9 -224 0 -240 1 -235 18 5 17 28 154 86 532 44
280 80 501 85 528 l5 22 -194 0 -194 0 -11 -62z"/>
<path d="M14965 4248 c-15 -101 -34 -221 -42 -268 -7 -47 -17 -112 -22 -145
-5 -33 -37 -231 -70 -441 -34 -210 -61 -389 -61 -398 0 -14 21 -16 194 -16
l193 0 27 173 c15 94 43 269 62 387 19 118 41 258 49 310 9 52 20 122 25 155
48 295 60 377 60 399 l0 26 -193 0 -193 0 -29 -182z"/>
<path d="M15681 4283 c-12 -82 -36 -229 -51 -328 -16 -99 -39 -241 -50 -315
-32 -209 -70 -446 -86 -539 -23 -135 -43 -121 175 -121 l189 0 6 28 c3 15 8
43 11 62 6 45 63 405 71 448 l5 32 209 0 209 0 6 33 c22 124 42 263 38 270 -2
4 -96 7 -209 7 -157 0 -204 3 -204 13 1 6 9 59 18 117 l18 105 226 3 226 2 6
43 c4 23 14 87 22 142 8 55 18 110 21 123 l5 22 -419 0 -419 0 -23 -147z"/>
<path d="M16679 4428 c-9 -38 -54 -330 -50 -333 2 -3 75 -5 161 -5 l157 0 -8
-47 c-8 -47 -45 -283 -74 -473 -9 -52 -20 -122 -25 -155 -9 -55 -56 -360 -64
-412 l-3 -23 192 0 192 0 27 173 c15 94 43 269 62 387 19 118 41 256 49 305 8
50 20 125 26 168 l13 77 152 0 c137 0 153 2 158 18 3 9 15 78 26 152 12 74 24
143 26 153 5 16 -24 17 -505 17 -281 0 -511 -1 -512 -2z"/>
<path d="M6006 2313 c10 -50 13 -53 44 -53 28 0 30 2 30 40 l0 40 -40 0 c-39
0 -40 -1 -34 -27z"/>
<path d="M2000 1910 l0 -290 40 0 c46 0 42 -13 44 150 l1 95 118 3 117 3 0 34
0 35 -119 0 -120 0 0 90 0 90 140 0 140 0 -3 38 -3 37 -177 3 -178 2 0 -290z"/>
<path d="M2846 2179 c-90 -48 -106 -90 -106 -271 0 -124 3 -147 21 -186 30
-62 85 -95 165 -100 81 -5 143 22 182 81 25 38 27 48 30 180 3 89 0 155 -8
182 -31 110 -180 170 -284 114z m162 -76 c40 -24 52 -72 52 -195 0 -132 -14
-172 -70 -201 -66 -33 -139 -1 -161 73 -6 20 -9 87 -7 152 2 99 6 121 24 145
37 50 107 61 162 26z"/>
<path d="M3588 2194 c-5 -4 -8 -135 -8 -291 l0 -283 40 0 39 0 3 121 3 121 54
2 54 1 59 -122 59 -123 50 0 49 0 -60 120 c-33 66 -60 124 -60 129 0 5 16 18
35 30 41 24 65 72 65 131 0 61 -23 105 -71 137 -39 26 -49 28 -173 31 -72 2
-134 1 -138 -4z m274 -104 c27 -27 30 -36 25 -73 -9 -64 -32 -77 -138 -77
l-89 0 0 90 0 90 86 0 c82 0 87 -1 116 -30z"/>
<path d="M4408 1911 l-3 -291 43 0 42 0 0 84 0 84 46 56 c25 31 49 54 54 51 7
-5 32 -47 103 -175 54 -99 55 -100 104 -100 37 0 44 3 39 16 -3 9 -47 85 -96
170 -50 84 -90 158 -90 164 0 6 38 56 85 113 47 56 85 105 85 110 0 4 -21 7
-47 7 l-48 0 -115 -147 -115 -146 -5 144 -5 144 -37 3 -37 3 -3 -290z"/>
<path d="M5247 2194 c-4 -4 -7 -135 -7 -291 l0 -283 180 0 180 0 0 40 0 40
-140 0 -140 0 -2 248 -3 247 -30 3 c-17 2 -34 0 -38 -4z"/>
<path d="M6000 1910 l0 -290 40 0 40 0 0 290 0 290 -40 0 -40 0 0 -290z"/>
<path d="M6547 2194 c-4 -4 -7 -135 -7 -291 l0 -283 40 0 39 0 3 123 3 122
118 3 117 3 0 34 0 34 -117 3 -118 3 -3 88 -3 87 141 0 141 0 -3 38 -3 37
-171 3 c-93 1 -173 -1 -177 -4z"/>
<path d="M7267 2194 c-4 -4 -7 -22 -7 -41 l0 -33 80 0 80 0 0 -250 0 -250 40
0 40 0 0 250 0 250 81 0 80 0 -3 38 -3 37 -191 3 c-104 1 -193 -1 -197 -4z"/>
<path d="M8739 2185 c-65 -35 -81 -125 -36 -193 l26 -39 -44 -42 c-24 -23 -49
-57 -55 -77 -26 -78 14 -170 87 -200 65 -28 164 -15 226 28 16 11 21 9 41 -14
19 -24 29 -28 75 -28 l53 0 -47 55 -47 55 21 46 c12 25 24 65 28 90 l6 45 -39
-3 c-37 -3 -39 -5 -44 -43 -3 -22 -9 -46 -14 -53 -10 -17 -30 0 -88 75 l-41
54 38 31 c49 41 66 83 55 131 -4 21 -14 44 -21 53 -35 43 -128 57 -180 29z
m115 -77 c9 -12 16 -30 16 -40 0 -18 -48 -68 -65 -68 -35 0 -60 91 -33 118 20
20 65 14 82 -10z m0 -300 c31 -37 56 -70 56 -73 0 -13 -68 -45 -98 -45 -113 0
-152 113 -64 187 30 26 22 31 106 -69z"/>
<path d="M10110 1910 l0 -290 180 0 180 0 0 40 0 40 -140 0 -140 0 0 85 0 85
120 0 120 0 0 40 0 40 -120 0 -120 0 0 85 0 85 141 0 140 0 -3 38 -3 37 -177
3 -178 2 0 -290z"/>
<path d="M11000 2189 c-40 -16 -89 -58 -107 -92 -22 -41 -30 -248 -14 -328 13
-61 60 -118 114 -138 41 -16 137 -13 171 4 28 15 31 14 58 -12 l28 -27 22 21
21 22 -26 30 c-25 30 -25 32 -9 63 21 43 29 240 12 315 -15 67 -67 126 -125
142 -48 13 -111 13 -145 0z m152 -98 l33 -29 3 -134 c3 -150 -5 -178 -38 -136
-23 30 -39 29 -59 -3 -11 -19 -9 -25 15 -50 l27 -28 -27 -12 c-39 -18 -102 3
-126 44 -17 27 -20 51 -20 165 0 79 5 142 11 155 20 39 51 57 101 57 39 0 54
-6 80 -29z"/>
<path d="M11704 2186 c-3 -8 -4 -106 -2 -218 3 -229 10 -254 82 -312 30 -25
48 -31 100 -34 80 -5 127 10 170 54 50 52 57 92 54 319 l-3 200 -35 0 -35 0
-5 -212 c-5 -195 -7 -214 -26 -240 -31 -41 -85 -59 -134 -44 -70 21 -74 36
-80 281 l-5 215 -38 3 c-26 2 -39 -1 -43 -12z"/>
<path d="M12560 1910 l0 -290 40 0 40 0 0 290 0 290 -40 0 -40 0 0 -290z"/>
<path d="M13108 2194 c-5 -4 -8 -135 -8 -291 l0 -283 40 0 40 0 0 115 0 115
88 0 c114 0 166 24 200 90 31 59 26 144 -10 189 -41 52 -80 64 -218 69 -69 2
-128 1 -132 -4z m252 -87 c53 -27 64 -114 18 -156 -22 -22 -129 -38 -173 -27
-25 6 -25 8 -25 101 l0 95 78 0 c42 0 88 -6 102 -13z"/>
<path d="M13907 2193 c-4 -3 -7 -134 -7 -290 l0 -283 40 0 40 0 0 185 c0 102
3 185 8 185 4 0 34 -58 67 -130 l60 -129 35 -1 36 0 54 121 c30 66 60 125 67
131 10 8 13 -27 13 -176 l0 -186 40 0 40 0 0 291 0 290 -42 -3 -43 -3 -82
-180 -82 -179 -45 94 c-24 52 -62 134 -84 183 -39 84 -42 87 -75 87 -18 0 -37
-3 -40 -7z"/>
<path d="M14855 2187 c-3 -7 -4 -136 -3 -287 l3 -275 180 0 180 0 0 35 0 35
-137 3 -138 3 0 84 0 85 115 0 115 0 0 40 0 40 -115 0 -115 0 0 85 0 84 138 3
137 3 3 29 c2 16 -2 32 -10 37 -7 5 -89 9 -181 9 -126 0 -169 -3 -172 -13z"/>
<path d="M15647 2193 c-4 -3 -7 -134 -7 -290 l0 -283 40 0 40 0 0 195 c0 122
4 195 10 195 5 0 22 -19 36 -42 15 -24 71 -112 126 -195 l100 -153 39 0 39 0
-2 288 -3 287 -40 0 -40 0 -5 -199 -5 -199 -34 54 c-131 205 -217 335 -226
341 -13 10 -59 10 -68 1z"/>
<path d="M16477 2193 c-4 -3 -7 -21 -7 -40 l0 -33 80 0 80 0 0 -250 0 -250 43
0 42 0 0 247 0 248 78 3 77 3 0 39 0 40 -193 0 c-107 0 -197 -3 -200 -7z"/>
<path d="M17345 2186 c-68 -34 -98 -78 -98 -149 -2 -97 45 -142 171 -164 101
-17 122 -32 122 -86 -1 -52 -14 -70 -63 -86 -48 -16 -120 -7 -165 21 l-34 21
-26 -27 -27 -27 29 -22 c45 -34 85 -45 156 -46 87 -1 128 12 172 54 47 46 59
104 33 171 -22 58 -69 88 -159 104 -111 18 -134 36 -127 100 8 75 99 100 198
53 30 -14 33 -13 54 6 12 11 19 26 16 34 -17 44 -189 73 -252 43z"/>
</g>
</svg>
