<?xml version="1.0" standalone="no"?>
<!DOCTYPE svg PUBLIC "-//W3C//DTD SVG 20010904//EN"
 "http://www.w3.org/TR/2001/REC-SVG-20010904/DTD/svg10.dtd">
<svg version="1.0" xmlns="http://www.w3.org/2000/svg"
 width="1620.000000pt" height="1620.000000pt" viewBox="0 0 1620.000000 1620.000000"
 preserveAspectRatio="xMidYMid meet">

<g transform="translate(0.000000,1620.000000) scale(0.100000,-0.100000)"
fill="#000000" stroke="none">
<path d="M295 10453 c-48 -25 -94 -73 -110 -117 -14 -37 -15 -285 -13 -2257
l3 -2216 34 -51 c25 -36 48 -56 83 -71 l48 -21 7763 0 c7738 0 7762 1 7806 20
48 22 82 54 109 103 16 30 17 159 20 2207 2 1196 0 2198 -3 2227 -8 70 -51
132 -114 166 l-49 27 -7773 0 c-7058 -1 -7777 -2 -7804 -17z m15586 -106 c21
-14 39 -37 47 -61 10 -30 12 -486 10 -2210 -3 -2084 -4 -2173 -21 -2200 -10
-15 -34 -34 -52 -42 -30 -12 -1118 -14 -7764 -14 -7095 0 -7733 1 -7764 16
-19 9 -41 29 -51 44 -15 26 -16 202 -16 2215 0 2406 -5 2225 62 2258 30 15
645 17 7774 17 l7741 0 34 -23z"/>
<path d="M10485 10141 c-52 -9 -149 -48 -200 -80 -97 -60 -200 -191 -253 -321
-13 -30 -27 -64 -32 -75 -78 -179 -122 -634 -101 -1036 22 -438 81 -684 210
-882 117 -179 293 -269 526 -270 271 -2 465 125 589 383 20 41 36 82 36 90 0
9 4 20 9 26 13 13 58 204 75 314 43 281 46 727 6 1005 -68 474 -213 721 -485
825 -50 19 -83 23 -200 26 -77 1 -158 -1 -180 -5z m280 -455 c103 -48 174
-155 220 -329 53 -200 70 -563 39 -840 -43 -400 -153 -579 -365 -595 -219 -15
-359 159 -401 498 -36 300 -36 548 1 805 34 237 123 404 246 461 71 33 189 34
260 0z"/>
<path d="M2463 10124 c-7 -3 -13 -14 -13 -25 0 -17 -10 -62 -41 -179 -5 -19
-29 -120 -54 -225 -42 -178 -124 -518 -252 -1045 -30 -124 -76 -317 -104 -430
-27 -113 -54 -223 -60 -245 -5 -22 -17 -69 -25 -105 -9 -36 -22 -92 -30 -125
-27 -112 -41 -185 -36 -190 3 -3 74 -5 158 -5 174 0 165 -5 185 92 5 29 14 64
19 78 4 14 16 59 25 100 19 85 54 233 126 530 146 606 214 890 234 980 9 41
22 86 28 99 l12 23 6 -28 c4 -16 15 -60 24 -99 9 -38 23 -97 31 -130 7 -33 20
-87 28 -120 8 -33 21 -89 29 -125 8 -36 38 -164 67 -285 29 -121 56 -238 60
-260 5 -22 38 -166 75 -320 36 -154 77 -329 91 -390 14 -60 30 -118 35 -127 9
-16 28 -18 174 -18 96 0 166 4 170 10 3 5 -5 54 -19 107 -13 54 -56 222 -95
373 -38 151 -111 439 -161 640 -50 201 -96 379 -101 395 -8 27 -24 92 -79 315
-55 225 -85 345 -100 395 -6 17 -14 53 -20 80 -5 28 -23 97 -38 155 l-28 105
-154 2 c-85 1 -161 -1 -167 -3z"/>
<path d="M5490 10038 c-12 -51 -44 -185 -71 -298 -27 -113 -70 -290 -95 -395
-25 -104 -52 -212 -59 -240 -13 -45 -41 -162 -82 -335 -18 -81 -40 -168 -57
-240 -8 -30 -22 -86 -31 -125 -9 -38 -23 -97 -32 -130 -8 -33 -21 -87 -28
-120 -8 -33 -21 -87 -29 -120 -9 -33 -23 -91 -32 -130 -9 -38 -22 -95 -30
-125 -28 -116 -46 -196 -47 -210 -2 -13 22 -15 154 -18 117 -2 159 1 166 10
10 12 44 142 64 238 5 24 27 119 50 210 22 91 49 203 60 250 11 47 24 101 29
120 6 19 19 76 30 125 11 50 25 106 30 125 5 19 21 82 34 140 78 332 158 665
162 669 11 12 19 -14 50 -149 8 -36 21 -92 29 -125 51 -222 78 -338 90 -390 7
-33 16 -69 19 -80 3 -11 15 -60 26 -110 11 -49 27 -117 35 -150 8 -33 28 -118
45 -190 16 -71 44 -188 61 -260 54 -232 58 -249 75 -325 27 -119 9 -110 204
-110 146 0 170 2 170 15 0 9 -50 212 -111 453 -107 420 -121 473 -153 607 -33
138 -83 334 -111 431 -8 28 -15 58 -15 66 0 9 -7 38 -14 64 -8 27 -29 105 -46
174 -17 69 -40 159 -50 200 -11 41 -46 182 -79 313 -34 131 -63 242 -66 248
-4 5 -77 9 -165 9 l-158 0 -22 -92z"/>
<path d="M3487 10103 c-4 -3 -7 -573 -7 -1265 l0 -1258 150 0 150 0 3 493 c1
270 2 737 2 1037 l0 545 235 0 c252 0 285 -5 340 -51 52 -44 73 -121 73 -264
0 -241 -55 -307 -268 -319 l-100 -6 0 -55 c1 -49 22 -132 80 -305 8 -22 17
-57 21 -78 3 -20 10 -40 15 -43 5 -3 9 -14 9 -24 0 -11 6 -39 14 -62 27 -85
54 -174 71 -233 9 -33 20 -71 25 -85 5 -14 18 -59 30 -100 34 -117 109 -360
126 -407 l16 -43 169 0 c93 0 169 4 169 8 0 10 -114 342 -261 762 -54 155 -89
262 -89 276 0 7 9 16 20 19 11 4 46 31 78 60 82 76 134 187 169 364 24 120 24
450 0 571 -33 165 -83 276 -159 350 -50 50 -94 73 -189 100 -68 19 -102 20
-480 20 -223 0 -409 -3 -412 -7z"/>
<path d="M6650 8819 l0 -1289 155 0 155 0 0 627 c0 449 3 624 11 616 6 -6 73
-152 150 -324 77 -173 146 -327 153 -344 8 -16 39 -86 69 -155 65 -149 90
-205 127 -285 15 -33 35 -77 44 -97 l17 -38 194 0 c129 0 195 4 195 10 0 6
-15 44 -34 83 -19 40 -57 124 -86 187 -55 120 -90 196 -146 318 -19 40 -34 74
-34 76 0 3 -23 53 -51 113 -28 59 -61 131 -74 158 -73 159 -91 198 -126 273
-22 46 -39 89 -39 97 0 14 35 89 174 379 42 87 76 159 76 161 0 1 40 85 89
186 48 101 101 211 116 244 15 33 52 109 81 169 29 60 51 113 48 117 -3 5 -83
9 -178 9 -193 0 -187 2 -221 -75 -10 -22 -58 -123 -107 -224 -48 -101 -88
-185 -88 -186 0 -2 -39 -84 -86 -182 -47 -98 -117 -245 -156 -328 -39 -82 -80
-168 -92 -190 l-21 -40 -5 610 -5 610 -152 2 -153 2 0 -1290z"/>
<path d="M8458 10090 c-317 -67 -490 -353 -550 -910 -16 -153 -16 -656 1 -785
59 -472 236 -778 491 -847 30 -8 157 -13 383 -15 l337 -4 -2 223 -3 223 -310
5 -310 5 -53 29 c-61 34 -102 81 -132 151 -61 143 -89 449 -71 793 6 118 14
218 16 222 3 4 10 43 16 85 11 83 48 198 82 255 11 19 40 54 64 76 71 67 111
74 431 74 l272 0 0 214 c0 186 -2 215 -16 220 -9 3 -138 6 -287 5 -223 0 -288
-4 -359 -19z m430 -2333 c3 -125 2 -127 -20 -136 -37 -14 -347 -14 -364 0 -11
9 -14 41 -14 134 0 67 3 125 7 129 4 3 93 5 197 4 l191 -3 3 -128z"/>
<path d="M9357 10103 c-4 -3 -7 -584 -7 -1290 l0 -1283 163 2 162 3 2 1268 c2
851 -1 1275 -7 1288 -10 17 -23 19 -159 19 -81 0 -151 -3 -154 -7z"/>
<path d="M12062 10090 c-177 -40 -305 -146 -395 -326 -76 -152 -124 -339 -147
-584 -12 -128 -13 -641 -1 -765 11 -112 30 -234 40 -260 5 -11 19 -58 32 -105
43 -158 123 -294 231 -396 120 -114 141 -118 646 -121 l412 -3 -2 762 -3 763
-367 3 -368 2 0 -230 0 -230 208 -2 207 -3 3 -294 c2 -229 -1 -296 -10 -303
-7 -4 -94 -8 -194 -8 -204 0 -260 11 -332 69 -41 32 -112 154 -112 190 0 10
-4 21 -9 27 -22 22 -43 227 -48 454 -10 458 42 730 160 851 75 76 58 73 482
79 l380 5 0 220 0 220 -365 2 c-325 1 -374 -1 -448 -17z m623 -200 l0 -125
-240 -3 c-132 -1 -250 0 -262 3 -22 5 -23 9 -23 124 0 65 3 121 7 124 4 4 122
6 262 5 l256 -3 0 -125z"/>
<path d="M13113 10104 c-10 -5 -13 -180 -12 -832 1 -1041 6 -1134 74 -1328 57
-162 149 -296 243 -351 84 -50 136 -57 421 -60 146 -2 270 -2 275 0 8 3 10 74
8 216 l-3 211 -226 0 c-144 0 -240 4 -265 12 -53 16 -123 80 -154 139 -58 115
-57 104 -63 1089 l-6 905 -140 2 c-77 1 -146 -1 -152 -3z"/>
<path d="M14262 10101 c-22 -13 -11 -1854 11 -2001 30 -201 83 -315 202 -436
107 -109 250 -164 424 -164 222 0 391 87 506 260 60 91 82 142 105 249 33 155
40 373 40 1247 l0 842 -22 6 c-37 9 -244 7 -272 -4 l-25 -9 -4 -918 c-3 -815
-5 -926 -20 -986 -46 -185 -138 -267 -302 -267 -105 0 -143 12 -199 61 -52 46
-76 87 -100 169 -37 129 -39 184 -45 1075 l-6 880 -140 2 c-77 2 -146 -1 -153
-6z"/>
<path d="M832 9878 l3 -223 240 -5 240 -5 3 -1058 2 -1058 158 3 157 3 3 1058
2 1057 240 0 240 0 0 225 0 225 -645 0 -645 0 2 -222z"/>
<path d="M3973 7403 c-9 -3 -13 -28 -13 -74 l0 -70 43 3 42 3 3 63 c3 59 2 63
-23 72 -28 11 -33 11 -52 3z"/>
<path d="M6257 7403 c-3 -5 -6 -31 -7 -58 -3 -90 -5 -86 43 -83 l42 3 0 70 0
70 -37 3 c-20 2 -38 -1 -41 -5z"/>
<path d="M7457 7403 c-4 -3 -7 -37 -7 -75 l0 -69 43 3 42 3 3 49 c5 78 -3 96
-42 96 -18 0 -36 -3 -39 -7z"/>
<path d="M12157 7403 c-4 -3 -7 -37 -7 -75 l0 -68 45 0 45 0 0 75 0 75 -38 0
c-21 0 -42 -3 -45 -7z"/>
<path d="M2110 7183 c-46 -19 -87 -59 -111 -105 -48 -93 -64 -317 -33 -464 33
-164 103 -229 244 -228 88 0 122 15 172 74 58 67 73 137 73 340 0 191 -8 231
-66 316 -51 75 -186 107 -279 67z m158 -139 c12 -8 32 -34 44 -57 19 -36 23
-61 26 -177 3 -119 1 -142 -18 -192 -33 -90 -90 -118 -165 -82 -61 29 -91 136
-82 294 6 109 28 181 64 210 31 24 99 27 131 4z"/>
<path d="M1677 7179 c-91 -21 -137 -69 -162 -167 -13 -49 -17 -123 -18 -335
l-2 -272 55 0 55 0 3 157 3 157 152 3 152 3 3 59 c2 41 -1 62 -10 67 -7 5 -77
9 -155 9 l-143 0 0 39 c0 21 7 55 15 75 24 58 54 70 180 76 l110 5 3 59 c2 41
-1 62 -10 67 -17 11 -182 10 -231 -2z"/>
<path d="M2543 7178 c-9 -15 -18 -718 -9 -754 6 -21 12 -24 56 -24 l49 0 3
153 3 152 61 3 61 3 28 -78 c16 -43 41 -113 57 -155 l30 -78 59 0 c32 0 59 3
59 8 0 8 -42 120 -89 237 -21 52 -29 81 -21 83 16 6 49 43 68 77 24 43 24 247
0 290 -25 45 -62 76 -105 86 -61 14 -300 11 -310 -3z m306 -164 c14 -18 21
-41 21 -71 0 -77 -52 -108 -170 -101 l-55 3 -3 98 -3 97 95 0 c90 0 95 -1 115
-26z"/>
<path d="M3075 7178 c-3 -7 -4 -184 -3 -393 l3 -380 53 -3 52 -3 0 180 c0 100
3 181 8 181 4 -1 47 -82 95 -180 l88 -180 64 0 c51 0 65 3 65 15 0 8 -25 63
-57 122 -143 274 -136 256 -119 294 8 19 30 61 49 94 99 179 136 253 130 258
-3 4 -30 7 -58 7 -37 0 -56 -5 -67 -17 -8 -10 -53 -89 -99 -175 -46 -87 -87
-158 -91 -158 -4 0 -9 78 -10 173 l-3 172 -48 3 c-32 2 -49 -1 -52 -10z"/>
<path d="M3547 7184 c-4 -4 -7 -139 -7 -299 0 -315 5 -353 57 -423 40 -53 70
-63 186 -60 l102 3 0 60 0 60 -87 5 c-79 5 -90 8 -115 33 l-28 27 -5 298 -5
297 -45 3 c-25 2 -49 0 -53 -4z"/>
<path d="M3957 7183 c-4 -7 -12 -726 -8 -770 1 -9 19 -13 56 -13 l55 0 -2 393
-3 392 -47 3 c-25 2 -48 -1 -51 -5z"/>
<path d="M4350 7181 c-83 -17 -137 -67 -166 -153 -15 -46 -18 -92 -18 -338
l-1 -285 55 0 55 0 3 158 3 157 150 0 150 0 -3 68 -3 67 -147 3 -148 3 0 42
c0 57 28 108 70 129 26 14 60 18 133 18 l98 0 -3 68 -3 67 -95 2 c-52 0 -111
-2 -130 -6z"/>
<path d="M4617 7184 c-4 -4 -7 -36 -7 -71 l0 -63 80 0 80 0 0 -309 c0 -170 3
-316 6 -325 5 -12 20 -16 60 -16 l54 0 2 323 3 322 83 3 83 3 -3 67 -3 67
-216 3 c-118 1 -218 -1 -222 -4z"/>
<path d="M5472 7177 c-71 -22 -108 -109 -99 -229 6 -71 17 -104 48 -149 9 -12
5 -25 -17 -60 -26 -40 -28 -52 -29 -134 0 -154 53 -217 185 -217 130 0 199 72
247 257 17 64 21 70 46 73 28 3 28 4 25 70 l-3 67 -120 0 -120 0 0 -65 0 -65
34 -3 c33 -3 33 -4 27 -44 -9 -58 -42 -115 -76 -133 -40 -21 -86 -19 -109 4
-51 51 -29 160 34 171 30 5 30 6 30 70 l0 64 -35 7 c-44 9 -60 32 -60 85 0 72
21 87 129 92 l92 4 -3 72 -3 71 -95 2 c-52 1 -110 -4 -128 -10z"/>
<path d="M6236 7175 c-9 -25 -7 -748 3 -763 5 -9 25 -12 57 -10 l49 3 0 390 0
390 -51 3 c-40 2 -53 -1 -58 -13z"/>
<path d="M6550 7178 c-91 -26 -120 -84 -120 -237 0 -73 5 -106 19 -138 30 -66
57 -77 192 -83 96 -4 121 -8 138 -24 28 -25 29 -94 2 -127 -18 -23 -26 -24
-178 -29 l-158 -5 0 -65 0 -65 176 -3 c168 -2 177 -1 210 20 56 37 80 100 80
204 -1 194 -39 234 -227 234 -93 0 -105 2 -124 22 -30 33 -27 95 8 148 2 3 74
7 160 10 l157 5 0 70 0 70 -150 2 c-82 1 -166 -3 -185 -9z"/>
<path d="M6940 7170 c-6 -11 -10 -42 -8 -68 l3 -47 85 -5 85 -5 3 -323 2 -323
53 3 52 3 3 323 2 322 81 0 80 0 -3 68 -3 67 -212 3 c-205 2 -212 2 -223 -18z"/>
<path d="M7435 7168 c-3 -13 -4 -189 -3 -393 l3 -370 58 -3 57 -3 -2 393 -3
393 -52 3 c-48 3 -53 1 -58 -20z"/>
<path d="M7831 7179 c-53 -10 -81 -28 -117 -73 -52 -65 -57 -97 -61 -413 l-5
-293 56 0 55 0 3 158 3 157 153 3 153 3 -3 67 -3 67 -153 3 -153 3 7 47 c15
111 61 142 207 142 l98 0 -3 68 -3 67 -95 2 c-52 0 -115 -3 -139 -8z"/>
<path d="M8137 7184 c-4 -4 -7 -139 -7 -300 0 -317 5 -353 57 -422 39 -52 69
-62 188 -62 l105 0 0 64 0 64 -90 4 c-82 3 -92 5 -117 31 l-28 27 -5 298 -5
297 -45 3 c-25 2 -49 0 -53 -4z"/>
<path d="M8682 7178 c-51 -11 -113 -68 -137 -125 -22 -52 -45 -185 -45 -263 0
-68 21 -207 38 -250 19 -48 73 -112 108 -126 26 -11 67 -14 157 -12 l122 3 3
59 c2 41 -1 62 -10 67 -7 5 -58 9 -113 9 -88 0 -103 3 -128 23 -28 22 -46 73
-47 130 l0 27 139 0 c107 0 141 3 150 14 7 9 11 38 9 73 l-3 58 -149 3 -148 3
7 47 c7 52 36 106 63 118 9 5 64 11 122 14 l105 5 0 65 0 65 -100 2 c-55 0
-119 -3 -143 -9z"/>
<path d="M9025 7178 c-3 -7 -4 -184 -3 -393 l3 -380 53 -3 52 -3 -6 283 c-4
156 -4 280 0 277 3 -3 13 -35 20 -70 24 -112 66 -302 81 -365 8 -33 15 -69 15
-80 0 -32 21 -44 76 -44 60 0 55 -6 79 110 8 41 29 138 45 215 17 77 34 155
37 173 13 72 17 9 18 -236 l0 -257 53 -3 52 -3 0 395 0 396 -80 0 -79 0 -9
-37 c-16 -66 -40 -176 -57 -253 -59 -280 -67 -312 -72 -285 -3 11 -16 72 -30
135 -14 63 -28 126 -30 140 -7 43 -34 162 -51 230 l-17 65 -73 3 c-52 2 -74
-1 -77 -10z"/>
<path d="M9847 7176 c-125 -34 -172 -144 -172 -401 1 -143 3 -166 24 -218 26
-65 69 -120 112 -143 20 -10 63 -14 152 -14 l124 0 5 51 c9 90 11 89 -112 89
-101 0 -110 2 -138 25 -30 25 -38 47 -44 115 l-3 35 145 5 145 5 3 73 3 72
-146 0 -145 0 0 35 c0 53 25 102 62 125 27 16 50 20 129 20 53 0 98 2 100 4 2
2 2 34 1 70 l-4 66 -96 -1 c-54 0 -119 -6 -145 -13z"/>
<path d="M10467 7183 c-4 -3 -7 -181 -7 -395 l0 -388 56 0 57 0 -6 283 -6 282
23 -85 c21 -75 40 -155 78 -335 6 -27 16 -70 22 -95 l12 -45 59 0 59 0 13 60
c7 33 19 89 27 125 13 59 21 96 61 285 7 33 15 56 16 50 2 -5 4 -125 4 -265
l0 -255 53 -3 52 -3 -2 393 -3 393 -77 3 -76 3 -17 -78 c-9 -43 -19 -85 -21
-93 -3 -8 -12 -49 -21 -90 -8 -41 -21 -104 -28 -140 -17 -82 -34 -151 -42
-170 -5 -14 -11 7 -47 180 -8 36 -21 98 -30 138 -9 39 -22 103 -30 142 -23
108 -25 110 -105 110 -37 0 -71 -3 -74 -7z"/>
<path d="M11293 7178 c-6 -7 -24 -65 -41 -128 -17 -63 -63 -231 -101 -373 -39
-142 -71 -263 -71 -268 0 -6 24 -9 57 -7 l57 3 19 88 20 87 112 0 111 0 19
-72 c27 -108 27 -108 92 -108 l56 0 -7 33 c-3 17 -13 55 -20 82 -16 54 -34
117 -66 235 -12 41 -28 98 -36 125 -8 28 -30 106 -50 175 -19 68 -40 128 -47
132 -19 12 -94 9 -104 -4z m90 -301 c40 -155 43 -142 -35 -145 -57 -2 -68 0
-68 13 0 13 44 205 56 244 8 25 17 3 47 -112z"/>
<path d="M11667 7183 c-4 -3 -7 -181 -7 -395 l0 -389 53 3 52 3 5 180 5 180
64 -125 c36 -69 77 -151 92 -182 l28 -58 66 0 c70 0 75 5 52 50 -7 14 -51 98
-97 187 l-84 163 17 32 c9 18 37 71 62 118 81 148 115 216 115 228 0 13 -97
17 -116 4 -11 -6 -91 -152 -161 -289 -15 -29 -31 -53 -35 -53 -4 0 -8 72 -8
159 0 88 -3 166 -6 175 -4 11 -19 16 -48 16 -24 0 -46 -3 -49 -7z"/>
<path d="M12147 7183 c-4 -3 -7 -181 -7 -395 l0 -389 58 3 57 3 3 370 c1 204
0 380 -3 393 -5 19 -12 22 -54 22 -26 0 -51 -3 -54 -7z"/>
<path d="M12367 7184 c-4 -4 -7 -182 -7 -396 l0 -388 55 0 55 0 1 283 0 282
20 -55 c11 -30 25 -64 30 -75 8 -18 57 -151 79 -215 5 -14 18 -50 30 -80 12
-30 28 -74 37 -97 l15 -43 64 0 64 0 -2 393 -3 392 -50 0 -50 0 -5 -260 c-4
-226 -7 -256 -18 -230 -14 32 -20 47 -121 315 l-66 175 -61 3 c-33 2 -63 0
-67 -4z"/>
<path d="M13063 7178 c-6 -7 -15 -31 -19 -53 -10 -48 -9 -46 -17 -65 -3 -8
-19 -64 -36 -125 -17 -60 -53 -191 -80 -290 -28 -99 -54 -195 -57 -212 l-6
-33 55 0 c62 0 59 -4 82 97 9 37 20 71 24 77 6 7 48 10 114 8 l104 -3 18 -77
c11 -42 23 -83 28 -89 6 -8 32 -13 64 -13 l56 0 -7 33 c-3 17 -13 57 -22 87
-35 119 -43 150 -79 280 -20 74 -40 146 -45 160 -4 14 -15 54 -25 90 -36 137
-34 135 -91 138 -33 2 -55 -2 -61 -10z m90 -307 c18 -72 31 -134 28 -136 -2
-3 -33 -5 -68 -5 -51 0 -63 3 -63 16 0 9 14 70 30 136 17 65 30 122 30 125 0
24 15 -23 43 -136z"/>
<path d="M13427 7184 c-4 -4 -7 -136 -7 -293 0 -312 7 -364 55 -427 45 -59 65
-64 245 -64 l160 0 11 28 c6 15 15 52 21 82 6 30 14 59 19 64 6 7 83 9 205 7
17 -1 23 -9 27 -38 4 -21 13 -60 20 -88 l14 -50 59 0 c46 0 59 3 57 15 -1 14
-64 246 -99 365 -8 28 -27 97 -43 155 -74 270 -64 252 -135 248 l-50 -3 -23
-85 c-13 -47 -27 -98 -32 -115 -5 -16 -26 -91 -46 -165 -67 -242 -104 -373
-110 -378 -3 -3 -5 16 -5 41 l0 47 -81 0 c-83 0 -129 16 -146 49 -4 9 -10 149
-13 311 l-5 295 -45 3 c-25 2 -49 0 -53 -4z m654 -321 c16 -65 29 -121 29
-125 0 -11 -128 -10 -134 1 -3 4 3 39 14 77 11 38 20 76 20 85 0 22 30 92 36
86 3 -3 19 -59 35 -124z"/>
<path d="M14355 7177 c-3 -6 -4 -183 -3 -392 l3 -380 55 0 55 0 5 150 5 150
56 3 56 3 58 -156 57 -155 59 0 c33 0 59 4 59 10 0 10 -61 171 -86 227 -8 17
-14 37 -14 45 0 8 -5 19 -11 25 -13 13 -4 33 16 33 24 0 63 81 72 150 9 69 -3
177 -24 215 -19 35 -57 63 -98 74 -58 16 -314 15 -320 -2z m312 -159 c25 -24
32 -92 12 -130 -16 -30 -70 -48 -144 -48 l-65 0 0 100 0 100 87 0 c75 0 90 -3
110 -22z"/>
<path d="M14895 7177 c-3 -6 -4 -183 -3 -392 l3 -380 49 -3 c32 -2 52 1 57 10
13 21 11 748 -2 764 -15 18 -98 19 -104 1z"/>
</g>
</svg>
